<svg xmlns="http://www.w3.org/2000/svg" width="23.554" height="24.124" viewBox="0 0 23.554 24.124">
  <path id="income" d="M-12907.928-9444.876a6.587,6.587,0,0,1-.859-.059q-5.757-.379-6.151-6.142a6.826,6.826,0,0,1-.062-.856v-2.353a5.907,5.907,0,0,1,3.571-5.42,5.834,5.834,0,0,1,2.317-.47h11.775a6.112,6.112,0,0,1,1.7.24,5.916,5.916,0,0,1,4.188,5.649v2.353c0,.24-.013.48-.026.71-.227,4.224-2.58,6.347-7.046,6.347Zm.784-7.915a.9.9,0,0,0,.9.9h2.11v2.185a.913.913,0,0,0,.9.907.914.914,0,0,0,.907-.907v-2.185h2.11a.9.9,0,0,0,.9-.9.911.911,0,0,0-.9-.9h-2.11v-2.039a.912.912,0,0,0-.907-.9.911.911,0,0,0-.9.9v2.039h-2.11A.911.911,0,0,0-12907.144-9452.791Zm12.016-8.881a8.1,8.1,0,0,0-2.208-.312h-7.552l2.713-6.313.035-.081c.172.058.351.143.532.2l2.667,1.121a7.98,7.98,0,0,1,3.16,2.025,5.292,5.292,0,0,1,.3.438,1.877,1.877,0,0,1,.24.52,1.5,1.5,0,0,1,.107.311,4.236,4.236,0,0,1,.025,2.1Zm-14.187-3.076.046-.107.074-.194a1.471,1.471,0,0,1,.1-.217c1.4-3.245,2.965-4.259,5.8-3.487l-2.908,6.771h-2.907a6.778,6.778,0,0,0-1.413.133Z" transform="translate(12915 9469)" fill="#fff"/>
</svg>
