<svg id="outcome" xmlns="http://www.w3.org/2000/svg" width="30.261" height="30.261" viewBox="0 0 30.261 30.261">
  <g id="incomeWallet" transform="translate(0 0)">
    <path id="Vector" d="M7.553.257,4.514,7.331H1.475A7.139,7.139,0,0,0,0,7.469L1.261,4.443l.05-.113.076-.2a2,2,0,0,1,.1-.227C2.95.509,4.59-.55,7.553.257Z" transform="translate(7.502 2.529)" fill="#fff"/>
    <path id="Vector-2" data-name="Vector" d="M10.226,7.023,10.2,7.01a8.432,8.432,0,0,0-2.307-.328H0L2.837.088,2.875,0c.177.063.366.151.555.214L6.216,1.387a8.343,8.343,0,0,1,3.3,2.118c.113.151.214.29.315.454a1.918,1.918,0,0,1,.252.542,1.687,1.687,0,0,1,.113.328A4.419,4.419,0,0,1,10.226,7.023Z" transform="translate(13.39 3.177)" fill="#fff"/>
    <path id="Vector-3" data-name="Vector" d="M20.237.252A6.377,6.377,0,0,0,18.459,0H6.153A6.023,6.023,0,0,0,3.732.492,6.17,6.17,0,0,0,0,6.153V8.612a7.122,7.122,0,0,0,.063.9q.416,6.014,6.43,6.418a6.8,6.8,0,0,0,.9.063h9.835c4.665,0,7.124-2.219,7.363-6.632.013-.24.025-.492.025-.744V6.153A6.178,6.178,0,0,0,20.237.252ZM15.458,9.368h-6.3a.946.946,0,0,1,0-1.891h6.3a.946.946,0,0,1,0,1.891Z" transform="translate(2.824 11.751)" fill="#fff"/>
    <path id="Vector-4" data-name="Vector" d="M0,0H30.261V30.261H0Z" fill="none" opacity="0"/>
  </g>
</svg>
